<?xml version="1.0" encoding="UTF-8"?>
<!DOCTYPE svg PUBLIC "-//W3C//DTD SVG 1.1//EN" "http://www.w3.org/Graphics/SVG/1.1/DTD/svg11.dtd">
<!-- Creator: CorelDRAW 2020 (64-Bit) -->
<svg xmlns="http://www.w3.org/2000/svg" xml:space="preserve" width="5.02604cm" height="4.64333cm" version="1.1" style="shape-rendering:geometricPrecision; text-rendering:geometricPrecision; image-rendering:optimizeQuality; fill-rule:evenodd; clip-rule:evenodd"
viewBox="0 0 597.85 552.33"
 xmlns:xlink="http://www.w3.org/1999/xlink"
 xmlns:xodm="http://www.corel.com/coreldraw/odm/2003">
 <defs>
  <style type="text/css">
   <![CDATA[
    .str0 {stroke:#4C4C4C;stroke-width:6.93;stroke-linecap:round;stroke-linejoin:round;stroke-miterlimit:22.9256}
    .str1 {stroke:#CCCCCC;stroke-width:3.46;stroke-linecap:round;stroke-linejoin:round;stroke-miterlimit:22.9256;stroke-dasharray:6.927443 17.318607}
    .str3 {stroke:#B2B2B2;stroke-width:3.46;stroke-linecap:round;stroke-linejoin:round;stroke-miterlimit:22.9256;stroke-dasharray:6.927443 3.463721}
    .str2 {stroke:#999999;stroke-width:3.46;stroke-linecap:round;stroke-linejoin:round;stroke-miterlimit:22.9256;stroke-dasharray:3.463721 3.463721}
    .fil0 {fill:none}
    .fil1 {fill:none;fill-rule:nonzero}
    .fil2 {fill:#4C4C4C;fill-rule:nonzero}
   ]]>
  </style>
 </defs>
 <g id="Plan_x0020_1">
  <metadata id="CorelCorpID_0Corel-Layer"/>
  <g id="_1815467636720">
   <polygon class="fil0 str0" points="432.95,415.95 298.93,415.95 164.9,415.95 123.49,288.48 82.07,161.02 190.5,82.24 298.93,3.46 407.35,82.24 515.78,161.02 474.36,288.48 "/>
   <polygon class="fil0 str1" points="412.83,384.99 298.93,384.99 185.02,384.99 149.82,276.66 114.62,168.33 206.78,101.38 298.93,34.43 391.07,101.38 483.23,168.33 448.03,276.66 "/>
   <path class="fil1 str2" d="M323.95 222.72l-1.87 -5.44 -9.69 0.41c-0.74,-5.77 -3.29,-10.82 -7.56,-15.16 -4.28,-4.33 -9.94,-6.52 -16.95,-6.52 -4.59,0 -8.65,1.08 -12.21,3.23 -3.56,2.15 -6.3,5.11 -8.26,8.81 -1.93,3.73 -2.9,8.01 -2.9,12.78 0,3.73 0.58,7.04 1.74,9.91 1.16,2.9 2.87,5.44 5.14,7.65 2.27,2.21 4.94,4.28 8.01,6.19 3.07,1.93 7.21,4.33 12.46,7.24 8.73,4.8 15.52,9.58 20.38,14.36 4.86,4.78 7.29,11.32 7.29,19.64 0,5.05 -1.3,9.97 -3.92,14.69 -2.62,4.69 -6.57,8.59 -11.85,11.6 -5.3,3.01 -11.85,4.53 -19.66,4.53 -4.92,0 -9.26,-0.52 -13.04,-1.58 -3.78,-1.05 -7.59,-2.54 -11.49,-4.42 -1.63,-0.55 -2.73,-0.8 -3.31,-0.8 -1.13,0 -1.88,0.39 -2.24,1.22 -0.33,0.8 -0.83,2.54 -1.41,5.25l-1.38 0 0 -0.03 -49.56 0 0 -2.34c7.04,-0.69 12.71,-3.37 16.96,-8.07 4.25,-4.74 7.97,-11.93 11.09,-21.55l59.53 -181.53 15.55 0 63.05 180.65c3.33,9.39 6.5,16.13 9.44,20.34 2.98,4.2 5.82,6.84 8.55,7.97 2.69,1.07 6.16,1.81 10.36,2.2l0 2.34 -68.77 0 0 -2.34c7.04,0 12.47,-0.69 16.28,-2.01 3.81,-1.32 5.72,-4.98 5.72,-10.9 0,-3.22 -0.88,-7.58 -2.69,-13 -0.39,-0.78 -0.59,-1.32 -0.59,-1.71l-22.19 -63.59zm-10.5 -30.52l-23.91 -69.48 -0.59 0 -25.75 80.07c2.15,-2.13 4.62,-4.01 7.42,-5.62 5.44,-3.09 11.62,-4.64 18.53,-4.64 5.22,0 10.61,0.89 16.1,2.68 0.86,0.42 2.02,0.63 3.48,0.63 1.79,0 2.98,-1.21 3.64,-3.64l1.06 0zm-59.44 39.22l-16.37 50.73c-1.01,3.1 -1.8,5.95 -2.38,8.52l17.34 -4.23c1.93,8.75 5.72,15.35 11.32,19.83 5.61,4.48 12.43,6.71 20.46,6.71 6.05,0 10.88,-1.13 14.52,-3.39 3.65,-2.27 6.16,-5.03 7.57,-8.26 1.41,-3.23 2.1,-6.46 2.1,-9.69 0,-6.71 -2.04,-12.15 -6.1,-16.4 -4.09,-4.23 -10.27,-8.56 -18.56,-12.98 -5.72,-3.12 -9.97,-5.55 -12.7,-7.26 -2.76,-1.74 -5.55,-3.98 -8.36,-6.74 -2.84,-2.74 -5.11,-5.99 -6.77,-9.75 -0.98,-2.17 -1.67,-4.53 -2.07,-7.09zm-18.2 76.31c0.71,1.4 1.65,2.49 2.81,3.26l0.4 0.25c-1.31,-0.89 -2.39,-2.05 -3.21,-3.52zm13.9 6.17l1.52 0.02 0 -0.03 -1.52 0z"/>
   <path class="fil2" d="M84.57 478.59c-8.89,13.87 -16.91,26.55 -24.01,38.08 -2.33,3.83 -4.06,7.6 -5.2,11.29 -1.68,5.62 -2.51,9.12 -2.51,10.48 0,2.26 0.7,4.03 2.06,5.29 0.54,0.47 1.19,0.72 1.97,0.72 4.01,0 8.98,-2.51 14.97,-7.53 0.11,-0.07 0.25,-0.11 0.36,-0.18 0.18,0.07 0.34,0.11 0.45,0.18 0.54,0.25 0.56,0.61 0.09,1.07 -7.35,7.08 -13.35,10.62 -18.01,10.62 -2.86,0 -4.81,-1.28 -5.82,-3.85 -0.36,-1.26 -0.54,-2.6 -0.54,-4.04 0,-1.12 0.69,-4.95 2.06,-11.45 4.23,-9.25 8.31,-16.82 12.19,-22.74 -1.91,2.26 -4.21,4.7 -6.9,7.26 -3.34,3.18 -6.16,6.03 -8.42,8.54 -4.19,4.59 -10.21,9.9 -18.1,15.86 -7.28,5.58 -11,8.38 -11.11,8.44 -4.19,2.62 -8.44,3.83 -12.81,3.58 -1.61,-0.07 -2.93,-0.87 -3.99,-2.42 -1.05,-1.57 -1.46,-3.27 -1.21,-5.11 1.97,-14.14 12.57,-29.15 31.81,-45.05 6.52,-5.38 16.06,-11.2 28.68,-17.5 5.56,-2.76 10.21,-4.12 13.98,-4.12 1.32,0 1.97,0.36 1.97,1.07 0,0.96 -0.36,1.37 -1.07,1.25 -2.94,-0.42 -7.62,0.92 -14.07,4.04 -9.07,4.43 -17.29,9.47 -24.64,15.16 -8.71,6.74 -15.3,12.84 -19.71,18.28 -5.56,6.81 -9.52,14.58 -11.92,23.32 -0.11,0.47 -0.18,0.94 -0.18,1.43 0,1.32 0.47,2.35 1.39,3.09 0.92,0.74 1.81,1.1 2.65,1.03 3.29,-0.18 6.36,-1.05 9.23,-2.6 1.97,-1.01 5.04,-3.13 9.23,-6.36 8,-6.16 13.89,-11.29 17.65,-15.41 6.45,-6.92 12.88,-13.82 19.27,-20.7 7.24,-7.95 13.15,-15.12 17.74,-21.51 0.54,-1.14 1.16,-1.52 1.88,-1.17 0.79,0.54 0.99,1.08 0.63,1.61zm50.85 -27.73c-0.18,0.9 -0.63,1.88 -1.34,2.96 -2.87,4.37 -6.7,9.59 -11.47,15.7 -4.59,5.85 -9.16,11.67 -13.71,17.47 -9.07,11.83 -14.77,19.31 -17.03,22.4 -5.49,7.37 -10.75,14.74 -15.77,22.16 5.56,-4.84 11,-8.67 16.31,-11.47 1.68,-0.89 3.02,-1.01 4.04,-0.36 0.36,0.18 0.83,0.96 1.43,2.33 0.07,0.36 0.09,0.74 0.09,1.17 0,1.32 -0.58,3.83 -1.75,7.53 -1.16,3.7 -1.75,6.36 -1.75,7.97 0,2.44 0.96,4.12 2.87,5.02 1.19,0.54 2.6,0.47 4.21,-0.18 3.05,-1.25 6.47,-3.49 10.3,-6.72 0.25,-0.18 0.52,-0.18 0.81,0 0.36,0.18 0.38,0.38 0.09,0.63 -4.55,4.1 -7.82,6.81 -9.86,8.11 -2.51,1.61 -4.5,2.36 -6,2.24 -4.01,-0.29 -6.25,-2.95 -6.72,-7.95 -0.11,-1.39 0.49,-4.14 1.84,-8.33 1.34,-4.17 2.02,-6.76 2.02,-7.77 0,-0.78 -0.27,-1.19 -0.81,-1.25 -10.15,5.85 -17.92,11.98 -23.3,18.41 -1.43,2.15 -2.51,3.79 -3.23,4.93l-0.63 0.72c-0.47,0.54 -0.98,0.61 -1.52,0.18 -0.47,-0.36 -0.61,-0.79 -0.36,-1.25l0.63 -1.61c1.14,-1.72 2.4,-3.38 3.77,-4.93 1.32,-2.22 3.52,-5.8 6.63,-10.75 3.52,-5.31 8.42,-12.21 14.7,-20.7 6.92,-9.38 11.4,-15.57 13.44,-18.55 7.77,-11.36 14.36,-20.77 19.8,-28.23 3.16,-4.37 6.56,-8.13 10.21,-11.29 0.18,-0.18 0.45,-0.27 0.81,-0.27 0.96,0 1.37,0.56 1.25,1.7zm34.05 86.34c-4.95,4.57 -8.35,7.41 -10.21,8.56 -2.51,1.54 -4.75,2.33 -6.72,2.33 -0.65,0 -1.32,-0.07 -1.97,-0.18 -2.26,-0.36 -3.67,-1.45 -4.21,-3.31 -0.65,-2.4 -0.02,-4.91 1.88,-7.55 4.9,-6.88 7.35,-10.26 7.35,-10.15 0,-0.54 -0.45,-0.65 -1.34,-0.36 -3.11,0.96 -7.12,3.43 -12.05,7.44 -4.93,4.01 -8.13,7.28 -9.63,9.86 -0.96,1.68 -1.86,2.51 -2.69,2.51 -0.47,0 -0.72,-0.51 -0.72,-1.52 0,-0.65 1.61,-3.47 4.84,-8.42 3.11,-4.77 4.66,-7.6 4.66,-8.42 0,-0.47 -0.42,-0.61 -1.25,-0.36 -4.72,1.43 -9.59,4.48 -14.61,9.17 -3.4,3.36 -6.81,6.7 -10.21,10.06 -0.36,0.36 -0.92,0.78 -1.7,1.25 -1.37,0.83 -2.24,0.63 -2.6,-0.63 -0.25,-0.72 -0.11,-1.32 0.36,-1.79l0.89 -0.89c2.62,-2.65 5.4,-5.83 8.29,-9.52 2.89,-3.72 4.32,-5.92 4.25,-6.56 -0.18,-0.36 -0.38,-0.54 -0.63,-0.54 -0.83,0 -3.07,1.54 -6.72,4.66 -3.29,2.8 -6.54,5.62 -9.77,8.42 -0.36,0.36 -0.69,0.2 -0.99,-0.45 -0.18,-0.29 -0.09,-0.6 0.27,-0.89 3.22,-2.8 6.47,-5.65 9.77,-8.51 4.55,-3.77 7.6,-5.76 9.14,-6 1.54,-0.25 2.66,0.45 3.31,2.06 0.18,0.65 -0.2,1.81 -1.16,3.49 -0.61,1.01 -1.5,2.31 -2.69,3.85 1.97,-1.68 3.94,-3.31 5.91,-4.93 2.69,-2.08 5.71,-3.83 9.05,-5.2 1.01,-0.43 2,-0.63 2.96,-0.63 1.36,0 2.13,0.6 2.24,1.79 0.11,0.47 -0.13,1.32 -0.76,2.51 -1.32,2.15 -3.36,5.17 -6.14,9.05 2.76,-2.4 5.54,-4.77 8.33,-7.17 3.65,-2.98 7.15,-5.2 10.48,-6.63 0.72,-0.29 1.63,-0.52 2.78,-0.63 1.55,-0.11 2.49,0.45 2.78,1.7 0.11,0.65 -0.25,1.52 -1.07,2.6 -0.96,1.5 -2.8,4.06 -5.56,7.71 -2.58,3.11 -3.79,5.58 -3.68,7.44 0.07,1.37 0.9,2.24 2.51,2.6 1.79,0.43 3.56,0.11 5.29,-0.89 4.3,-2.51 7.91,-5.02 10.84,-7.53 0.25,-0.25 0.54,-0.25 0.9,0 0.29,0.11 0.29,0.34 0,0.63zm36.47 -0.63c-2.58,2.62 -5.94,5 -10.13,7.08 -1.54,0.79 -4.1,1.59 -7.62,2.42 -3.88,0.89 -7.08,1.34 -9.59,1.34 -7.82,0 -11.58,-2.51 -11.29,-7.51 0.07,-1.21 0.52,-2.42 1.35,-3.68 2.57,-3.94 6.94,-7.55 13.13,-10.82 6.18,-3.29 11.49,-4.68 15.91,-4.21 0.25,0.18 0.54,0.43 0.89,0.72 0.18,0.18 0.2,0.43 0.09,0.72l-0.27 0.8c-0.18,0.25 -0.47,0.63 -0.9,1.17 -0.25,0.18 -0.96,0.78 -2.15,1.79 -6.52,3.16 -14,6.38 -22.49,9.68 -0.83,0.72 -1.5,1.95 -1.97,3.68 0.43,2.87 3.25,4.48 8.51,4.84 1.54,0.11 4.06,-0.11 7.48,-0.67 3.43,-0.58 5.89,-1.16 7.4,-1.77 4.05,-1.68 7.53,-3.77 10.39,-6.29 0.29,-0.29 0.65,-0.29 1.07,0 0.43,0.18 0.47,0.42 0.18,0.71zm-10.39 -12.9c0,-0.29 -0.79,-0.36 -2.33,-0.18 -7.46,1.86 -13.6,5.17 -18.37,9.95 7.1,-2.76 13.37,-5.47 18.81,-8.15 1.26,-0.9 1.88,-1.43 1.88,-1.61zm82.03 -56.37c0.43,0.47 0.34,0.9 -0.27,1.26 -7.95,4.59 -14.76,8.08 -20.43,10.48 -3.05,15.12 -9.84,30.02 -20.34,44.71 0,0.07 0.09,0 0.27,-0.18 1.07,0.18 2.8,0.56 5.2,1.17 1.14,0.11 1.59,0.65 1.34,1.61 -0.11,1.14 -0.72,1.59 -1.79,1.34 -2.15,-0.47 -4.5,-0.81 -7.08,-0.98 -4.01,5.85 -7.33,10.08 -9.95,12.7 -4.12,4.1 -8.6,6.85 -13.44,8.22 -1.01,0.29 -2.06,0.45 -3.14,0.45 -3.65,0 -5.85,-1.41 -6.63,-4.21 -0.25,-0.83 -0.36,-1.66 -0.36,-2.49 0,-2.29 0.83,-4.41 2.51,-6.45 6.45,-7.82 15.23,-11.71 26.35,-11.71 1.25,0 2.51,0.07 3.76,0.18 2.76,-4.41 6.43,-10.75 11.02,-19 2.04,-5.31 4.75,-13.37 8.16,-24.19 -4.19,1.54 -7.82,2.87 -10.93,3.94 -10.33,2.04 -17.92,3.05 -22.76,3.05 -6.74,0 -12.55,-1.34 -17.38,-4.03l-2.06 -2.33c-0.11,-0.25 -0.18,-0.38 -0.18,-0.45 -0.43,-0.79 -0.63,-1.91 -0.63,-3.41 0,-1.97 0.42,-4.23 1.25,-6.81 2.26,-6.88 6.52,-13.1 12.72,-18.73 6.52,-5.91 13.69,-9.68 21.51,-11.29 1.72,-0.36 3.47,-0.54 5.2,-0.54 7.82,0 13.51,2.78 17.02,8.33 1.5,4.33 2.24,9.05 2.24,14.18 0,2.76 -0.2,5.56 -0.63,8.45 -0.18,1.36 -0.47,3.45 -0.9,6.27 4.77,-1.97 11.2,-5.24 19.27,-9.81 0.47,-0.43 0.83,-0.34 1.08,0.27zm-23.93 -17.74c-3.16,-5.08 -8.06,-7.62 -14.69,-7.62 -5.31,0 -10.46,1.52 -15.41,4.57 -11.83,7.24 -18.64,16.8 -20.43,28.72l0.63 3.22 1.43 1.7c5.02,2.98 10.69,4.48 17.03,4.48 3.4,0 9.74,-0.8 19,-2.42 0,0 4.04,-1.43 12.1,-4.3 1.25,-5.58 1.88,-10.8 1.88,-15.7 0,-4.43 -0.52,-8.65 -1.52,-12.66zm-22.22 77.06c-11,0 -19.36,3.38 -25.09,10.12 -1.5,1.77 -2.24,3.56 -2.24,5.4 0,1.19 0.52,2 1.52,2.44 1.01,0.45 2.08,0.67 3.22,0.67 4.41,0 9.41,-3.05 14.96,-9.14 2.62,-2.91 5.17,-6.07 7.62,-9.5zm120.17 -53.54c0.07,0.36 0.09,0.74 0.09,1.16 0,3.77 -4.32,10.78 -12.99,21.04 -2.76,2.69 -6.7,6.54 -11.83,11.56 -0.65,2.15 -1.32,4.95 -1.97,8.42 -0.54,4.05 -1.08,8.09 -1.61,12.1 -0.83,5.24 -2.24,9.34 -4.21,12.25 -5.13,7.64 -12.9,11.85 -23.3,12.64 -5.13,0.36 -9.21,-0.54 -12.19,-2.69 -2.26,-1.68 -4.12,-3.61 -5.56,-5.83 -1.86,1.32 -4.5,3.25 -7.97,5.83 -0.47,0.43 -1.1,0.43 -1.88,0 -0.65,-0.36 -0.7,-0.72 -0.09,-1.08 1.01,-0.78 2.51,-1.99 4.48,-3.63 1.97,-1.64 3.47,-2.82 4.48,-3.54 -0.61,-2.91 -0.27,-5.56 0.98,-7.89 1.91,-3.58 5.09,-5.87 9.5,-6.88 3.11,-0.72 6.81,-0.78 11.11,-0.18 1.36,-0.85 3.25,-2.11 5.65,-3.77 2.15,-1.68 5.29,-4.3 9.41,-7.88 2.26,-1.91 5.49,-4.73 9.68,-8.42 2.87,-9.43 5.38,-16.04 7.53,-19.78 3.94,-6.81 9.5,-11.67 16.67,-14.61 0.25,-0.11 0.74,-0.27 1.52,-0.45 1.19,-0.36 1.95,-0.09 2.24,0.81l0.27 0.81zm-4.3 3c-2.93,0.25 -5.85,2.17 -8.78,5.82 -4.19,5.13 -7.33,11.23 -9.41,18.28l-0.54 1.79c2.04,-1.86 4.66,-4.41 7.89,-7.7 2.33,-2.62 4.75,-5.98 7.26,-10.08 2.51,-4.1 3.76,-6.67 3.76,-7.75 0,-0.18 -0.07,-0.29 -0.18,-0.36zm-24.55 33.96l-1.52 1.34c-1.32,1.01 -3.07,2.53 -5.29,4.57 -4.91,4.24 -9.5,7.98 -13.8,11.2 0.36,0.18 0.89,0.43 1.61,0.72 0.96,0.65 1.34,1.19 1.17,1.61 -0.43,1.01 -1.32,1.25 -2.69,0.72 -0.9,-0.18 -2.13,-0.38 -3.68,-0.63 -3.94,2.8 -9.83,6.9 -17.65,12.28 1.08,2.75 2.69,4.84 4.84,6.27 1.97,1.32 4.55,1.97 7.71,1.97 2.93,0 5.76,-0.52 8.51,-1.52 5.49,-2.04 9.74,-5.04 12.73,-9.05 2.26,-3.04 3.96,-6.97 5.11,-11.74 0.79,-4.01 1.54,-7.97 2.33,-11.92 0,0.72 0.2,-1.23 0.63,-5.82zm-27.6 19.09c-2.87,0 -4.59,0.07 -5.2,0.18 -5.91,1.14 -9.05,4.32 -9.41,9.59 3.22,-2.15 8.09,-5.4 14.61,-9.77zm79.8 7.62c-3.29,3.68 -6.16,6.43 -8.6,8.22 -1.97,1.45 -4.15,2.17 -6.54,2.17 -0.47,0 -0.96,-0.02 -1.43,-0.09 -2.04,-0.29 -3.38,-1.34 -4.03,-3.16 -0.36,-1.03 -0.54,-2.02 -0.54,-2.98 0,-1.61 0.72,-3.79 2.15,-6.49 -1.79,1.5 -4.75,3.65 -8.87,6.47 -2.22,1.32 -5.65,3.09 -10.3,5.31 -2.4,0.89 -4.39,1.34 -6.01,1.34 -1.54,0 -2.66,-0.36 -3.31,-1.08 -1.25,-1.32 -1.43,-2.96 -0.54,-4.95 1.72,-3.88 4.95,-7.39 9.68,-10.48 6.56,-4.37 12.55,-6.83 17.92,-7.37 0.29,-0.11 0.52,0.02 0.63,0.45 0,0.36 -0.2,0.54 -0.63,0.54 -7.17,2.15 -12.64,4.63 -16.4,7.44 -1.43,0.96 -3.4,2.67 -5.92,5.11 -1.68,2.15 -2.4,3.85 -2.15,5.11 0.11,0.61 0.56,0.96 1.34,1.08 2.62,0.36 5.31,-0.11 8.07,-1.43 5.44,-2.64 9.79,-5.04 13.08,-7.19 4.41,-2.87 8.51,-6.77 12.28,-11.67 0.72,-0.9 1.28,-1.07 1.7,-0.54 0.54,0.65 0.51,1.27 -0.09,1.88 -0.79,0.85 -2.06,2.22 -3.86,4.12 -1.25,1.68 -1.99,2.84 -2.24,3.52 -2.22,3.47 -3.32,6.52 -3.32,9.17 0,0.4 0.02,0.83 0.09,1.25 0.11,1.19 1.05,2 2.78,2.42 1.5,0.36 3.16,0.07 5.02,-0.89 3.47,-2.33 6.63,-4.93 9.5,-7.8 0.18,-0.18 0.34,-0.2 0.45,-0.09 0.29,0.18 0.34,0.38 0.09,0.63zm31.81 0.72c-4.05,3.72 -7.41,6.41 -10.03,8.09 -4.55,2.93 -8.58,4.32 -12.1,4.15 -2.04,-0.11 -3.43,-0.52 -4.21,-1.17 -1.18,-1.03 -1.59,-2.46 -1.16,-4.3 0.78,-3.47 3.83,-7.73 9.14,-12.75 -0.83,-2.46 -1.08,-4.68 -0.72,-6.65 -2.33,2.22 -6.47,6.19 -12.46,11.92 -0.43,0.43 -0.72,0.34 -0.9,-0.27 0,-0.25 0.07,-0.52 0.18,-0.81 0.72,-0.67 3.74,-3.65 9.05,-8.98 1.79,-1.86 3.88,-3.97 6.27,-6.29 1.14,-1.32 2.13,-1.5 2.96,-0.54 0.65,0.78 0.38,1.86 -0.81,3.22 -0.65,0.78 -0.99,1.66 -0.99,2.6 0,0.67 0.2,1.68 0.63,3.02 0.43,1.34 0.63,2.38 0.63,3.09 0,1.07 -0.27,1.77 -0.81,2.06 -1.79,1.01 -3.56,2.69 -5.29,4.97 -1.72,2.31 -2.71,4.19 -2.96,5.62 -0.25,1.32 0.47,1.97 2.15,1.97 3.65,0 6.99,-0.87 10.04,-2.6 4.59,-2.62 8.09,-4.95 10.48,-6.99 0.25,-0.18 0.51,-0.18 0.8,0 0.36,0.18 0.38,0.38 0.09,0.63zm60.04 -0.27c-4.95,4.57 -8.35,7.41 -10.21,8.56 -2.51,1.54 -4.75,2.33 -6.72,2.33 -0.65,0 -1.32,-0.07 -1.97,-0.18 -2.26,-0.36 -3.67,-1.45 -4.21,-3.31 -0.65,-2.4 -0.02,-4.91 1.88,-7.55 4.9,-6.88 7.35,-10.26 7.35,-10.15 0,-0.54 -0.45,-0.65 -1.34,-0.36 -3.11,0.96 -7.12,3.43 -12.05,7.44 -4.93,4.01 -8.13,7.28 -9.63,9.86 -0.96,1.68 -1.86,2.51 -2.69,2.51 -0.47,0 -0.72,-0.51 -0.72,-1.52 0,-0.65 1.61,-3.47 4.84,-8.42 3.11,-4.77 4.66,-7.6 4.66,-8.42 0,-0.47 -0.42,-0.61 -1.25,-0.36 -4.72,1.43 -9.59,4.48 -14.61,9.17 -3.4,3.36 -6.81,6.7 -10.21,10.06 -0.36,0.36 -0.92,0.78 -1.7,1.25 -1.37,0.83 -2.24,0.63 -2.6,-0.63 -0.25,-0.72 -0.11,-1.32 0.36,-1.79l0.89 -0.89c2.62,-2.65 5.4,-5.83 8.29,-9.52 2.89,-3.72 4.32,-5.92 4.25,-6.56 -0.18,-0.36 -0.38,-0.54 -0.63,-0.54 -0.83,0 -3.07,1.54 -6.72,4.66 -3.29,2.8 -6.54,5.62 -9.77,8.42 -0.36,0.36 -0.69,0.2 -0.99,-0.45 -0.18,-0.29 -0.09,-0.6 0.27,-0.89 3.22,-2.8 6.47,-5.65 9.77,-8.51 4.55,-3.77 7.6,-5.76 9.14,-6 1.54,-0.25 2.66,0.45 3.31,2.06 0.18,0.65 -0.2,1.81 -1.16,3.49 -0.61,1.01 -1.5,2.31 -2.69,3.85 1.97,-1.68 3.94,-3.31 5.91,-4.93 2.69,-2.08 5.71,-3.83 9.05,-5.2 1.01,-0.43 2,-0.63 2.96,-0.63 1.36,0 2.13,0.6 2.24,1.79 0.11,0.47 -0.13,1.32 -0.76,2.51 -1.32,2.15 -3.36,5.17 -6.14,9.05 2.76,-2.4 5.54,-4.77 8.33,-7.17 3.65,-2.98 7.15,-5.2 10.48,-6.63 0.72,-0.29 1.63,-0.52 2.78,-0.63 1.55,-0.11 2.49,0.45 2.78,1.7 0.11,0.65 -0.25,1.52 -1.07,2.6 -0.96,1.5 -2.8,4.06 -5.56,7.71 -2.58,3.11 -3.79,5.58 -3.68,7.44 0.07,1.37 0.9,2.24 2.51,2.6 1.79,0.43 3.56,0.11 5.29,-0.89 4.3,-2.51 7.91,-5.02 10.84,-7.53 0.25,-0.25 0.54,-0.25 0.9,0 0.29,0.11 0.29,0.34 0,0.63zm37.37 -1.61c-0.18,0.29 -0.63,0.74 -1.34,1.34 -2.93,2.04 -5.49,3.16 -7.71,3.4 -1.97,0.18 -3.04,0.27 -3.22,0.27 -0.83,-0.11 -1.36,-0.25 -1.61,-0.36 -6.27,5.85 -12.43,8.78 -18.46,8.78 -1.79,0 -3.49,-0.36 -5.11,-1.08 -1.07,-0.47 -1.77,-1.45 -2.06,-2.96 -0.29,-1.36 -0.25,-2.69 0.18,-3.94 1.25,-3.83 4.35,-7.71 9.25,-11.65 3.65,-2.98 7.78,-5.08 12.37,-6.27 0.97,-0.65 2.06,-0.99 3.34,-0.99 3.4,0 5.56,1.34 6.45,4.03 0.18,0.61 0.27,1.52 0.27,2.78 0,2.62 -1.45,5.76 -4.34,9.41 1.07,0.11 1.97,0.16 2.69,0.09 2.04,-0.18 4.41,-1.19 7.17,-3.05 0,0 0.45,-0.25 1.34,-0.72 0.42,-0.25 0.69,-0.2 0.8,0.09 0.18,0.25 0.18,0.52 0,0.81zm-9.81 -6.72c0,-0.9 -0.27,-1.72 -0.81,-2.51 -0.96,-1.36 -2.24,-2.06 -3.81,-2.06 -2.84,0 -4.26,2.06 -4.26,6.18 0,3.29 1.3,5.56 3.9,6.81 3.31,-3.76 4.97,-6.56 4.97,-8.42zm-6.86 10.03c-3.22,-1.5 -4.84,-4.28 -4.84,-8.33 0,-1.43 0.43,-2.93 1.26,-4.48 -2.69,1.07 -5.22,2.51 -7.62,4.3 -2.4,1.79 -4.46,3.83 -6.18,6.1 -1.08,1.43 -1.79,3.16 -2.15,5.2 -0.11,0.78 0.11,1.54 0.67,2.33 0.56,0.78 1.39,1.23 2.46,1.34 0.72,0.07 1.43,0.09 2.15,0.09 2.76,0 5.44,-0.72 8.06,-2.15 1.08,-0.61 3.14,-2.06 6.18,-4.39zm51.62 -1.43c-3.52,3.18 -6.74,5.71 -9.68,7.55 -2.26,1.41 -4.5,2.13 -6.72,2.13 -2.26,0 -3.83,-0.47 -4.66,-1.41 -1.61,-1.77 -1.68,-4.08 -0.18,-6.92 -2.15,2.22 -4.66,4.24 -7.53,6.03 -3.11,1.86 -5.72,2.87 -7.8,2.98 -1.61,0.11 -2.89,-0.38 -3.86,-1.52 -0.83,-0.96 -1.14,-1.97 -0.89,-3.04 0.43,-2.11 2.35,-5.47 5.82,-10.06 2.09,-2.64 4.21,-5.26 6.36,-7.91 1.08,-1.32 2,-1.72 2.78,-1.25 0.25,0.18 0.36,0.36 0.36,0.54 0,0.07 -0.63,0.87 -1.88,2.44 -1.43,1.68 -2.86,3.31 -4.3,4.95 -2.33,2.98 -4.1,5.98 -5.29,8.98 -0.11,0.25 -0.18,0.49 -0.18,0.72 0,1.75 1.17,2.6 3.49,2.53 3.34,-0.11 7.28,-2.46 11.83,-7.01 3.83,-4.28 7.64,-8.56 11.47,-12.88 0.29,-0.36 0.69,-0.54 1.16,-0.54 1.01,0 1.52,0.43 1.52,1.25 0,0.18 -0.07,0.36 -0.18,0.52 -0.72,0.9 -2.08,2.51 -4.12,4.81 -2.58,2.91 -4.59,5.94 -6.09,9.07 -0.18,0.43 -0.27,0.92 -0.27,1.52 0,2.26 1.17,3.38 3.49,3.38 1.68,0 3.11,-0.31 4.3,-0.96 4.37,-2.35 7.73,-4.52 10.12,-6.52 0.25,-0.18 0.52,-0.18 0.81,0 0.36,0.18 0.38,0.38 0.09,0.63zm58.52 -0.27c-4.95,4.57 -8.35,7.41 -10.21,8.56 -2.51,1.54 -4.75,2.33 -6.72,2.33 -0.65,0 -1.32,-0.07 -1.97,-0.18 -2.26,-0.36 -3.67,-1.45 -4.21,-3.31 -0.65,-2.4 -0.02,-4.91 1.88,-7.55 4.9,-6.88 7.35,-10.26 7.35,-10.15 0,-0.54 -0.45,-0.65 -1.34,-0.36 -3.11,0.96 -7.12,3.43 -12.05,7.44 -4.93,4.01 -8.13,7.28 -9.63,9.86 -0.96,1.68 -1.86,2.51 -2.69,2.51 -0.47,0 -0.72,-0.51 -0.72,-1.52 0,-0.65 1.61,-3.47 4.84,-8.42 3.11,-4.77 4.66,-7.6 4.66,-8.42 0,-0.47 -0.42,-0.61 -1.25,-0.36 -4.72,1.43 -9.59,4.48 -14.61,9.17 -3.4,3.36 -6.81,6.7 -10.21,10.06 -0.36,0.36 -0.92,0.78 -1.7,1.25 -1.37,0.83 -2.24,0.63 -2.6,-0.63 -0.25,-0.72 -0.11,-1.32 0.36,-1.79l0.89 -0.89c2.62,-2.65 5.4,-5.83 8.29,-9.52 2.89,-3.72 4.32,-5.92 4.25,-6.56 -0.18,-0.36 -0.38,-0.54 -0.63,-0.54 -0.83,0 -3.07,1.54 -6.72,4.66 -3.29,2.8 -6.54,5.62 -9.77,8.42 -0.36,0.36 -0.69,0.2 -0.99,-0.45 -0.18,-0.29 -0.09,-0.6 0.27,-0.89 3.22,-2.8 6.47,-5.65 9.77,-8.51 4.55,-3.77 7.6,-5.76 9.14,-6 1.54,-0.25 2.66,0.45 3.31,2.06 0.18,0.65 -0.2,1.81 -1.16,3.49 -0.61,1.01 -1.5,2.31 -2.69,3.85 1.97,-1.68 3.94,-3.31 5.91,-4.93 2.69,-2.08 5.71,-3.83 9.05,-5.2 1.01,-0.43 2,-0.63 2.96,-0.63 1.36,0 2.13,0.6 2.24,1.79 0.11,0.47 -0.13,1.32 -0.76,2.51 -1.32,2.15 -3.36,5.17 -6.14,9.05 2.76,-2.4 5.54,-4.77 8.33,-7.17 3.65,-2.98 7.15,-5.2 10.48,-6.63 0.72,-0.29 1.63,-0.52 2.78,-0.63 1.55,-0.11 2.49,0.45 2.78,1.7 0.11,0.65 -0.25,1.52 -1.07,2.6 -0.96,1.5 -2.8,4.06 -5.56,7.71 -2.58,3.11 -3.79,5.58 -3.68,7.44 0.07,1.37 0.9,2.24 2.51,2.6 1.79,0.43 3.56,0.11 5.29,-0.89 4.3,-2.51 7.91,-5.02 10.84,-7.53 0.25,-0.25 0.54,-0.25 0.9,0 0.29,0.11 0.29,0.34 0,0.63z"/>
   <path class="fil1 str3" d="M323.95 223.51l-1.87 -5.44 -9.69 0.41c-0.74,-5.77 -3.29,-10.82 -7.56,-15.16 -4.28,-4.33 -9.94,-6.52 -16.95,-6.52 -4.59,0 -8.65,1.08 -12.21,3.23 -3.56,2.15 -6.3,5.11 -8.26,8.81 -1.93,3.73 -2.9,8.01 -2.9,12.78 0,3.73 0.58,7.04 1.74,9.91 1.16,2.9 2.87,5.44 5.14,7.65 2.27,2.21 4.94,4.28 8.01,6.19 3.07,1.93 7.21,4.33 12.46,7.24 8.73,4.8 15.52,9.58 20.38,14.36 4.86,4.78 7.29,11.32 7.29,19.64 0,5.05 -1.3,9.97 -3.92,14.69 -2.62,4.69 -6.57,8.59 -11.85,11.6 -5.3,3.01 -11.85,4.53 -19.66,4.53 -4.92,0 -9.26,-0.52 -13.04,-1.58 -3.78,-1.05 -7.59,-2.54 -11.49,-4.42 -1.63,-0.55 -2.73,-0.8 -3.31,-0.8 -1.13,0 -1.88,0.39 -2.24,1.22 -0.33,0.8 -0.83,2.54 -1.41,5.25l-1.38 0 0 -0.03 -49.56 0 0 -2.34c7.04,-0.69 12.71,-3.37 16.96,-8.07 4.25,-4.74 7.97,-11.93 11.09,-21.55l59.53 -181.53 15.55 0 63.05 180.65c3.33,9.39 6.5,16.13 9.44,20.34 2.98,4.2 5.82,6.84 8.55,7.97 2.69,1.07 6.16,1.81 10.36,2.2l0 2.34 -68.77 0 0 -2.34c7.04,0 12.47,-0.69 16.28,-2.01 3.81,-1.32 5.72,-4.98 5.72,-10.9 0,-3.22 -0.88,-7.58 -2.69,-13 -0.39,-0.78 -0.59,-1.32 -0.59,-1.71l-22.19 -63.59zm-10.5 -30.52l-23.91 -69.48 -0.59 0 -25.75 80.07c2.15,-2.13 4.62,-4.01 7.42,-5.62 5.44,-3.09 11.62,-4.64 18.53,-4.64 5.22,0 10.61,0.89 16.1,2.68 0.86,0.42 2.02,0.63 3.48,0.63 1.79,0 2.98,-1.21 3.64,-3.64l1.06 0zm-59.44 39.22l-16.37 50.73c-1.01,3.1 -1.8,5.95 -2.38,8.52l17.34 -4.23c1.93,8.75 5.72,15.35 11.32,19.83 5.61,4.48 12.43,6.71 20.46,6.71 6.05,0 10.88,-1.13 14.52,-3.39 3.65,-2.27 6.16,-5.03 7.57,-8.26 1.41,-3.23 2.1,-6.46 2.1,-9.69 0,-6.71 -2.04,-12.15 -6.1,-16.4 -4.09,-4.23 -10.27,-8.56 -18.56,-12.98 -5.72,-3.12 -9.97,-5.55 -12.7,-7.26 -2.76,-1.74 -5.55,-3.98 -8.36,-6.74 -2.84,-2.74 -5.11,-5.99 -6.77,-9.75 -0.98,-2.17 -1.67,-4.53 -2.07,-7.09zm-18.2 76.31c0.71,1.4 1.65,2.49 2.81,3.26l0.4 0.25c-1.31,-0.89 -2.39,-2.05 -3.21,-3.52zm13.9 6.17l1.52 0.02 0 -0.03 -1.52 0z"/>
  </g>
 </g>
</svg>
